<svg xmlns="http://www.w3.org/2000/svg" viewBox="0 0 16 16"><g fill="none"><path fill="url(#SVGFwSxkd4F)" d="M3.733 7.313A.733.733 0 0 0 3 8.046a5 5 0 0 0 4.267 4.946v1.275a.733.733 0 0 0 1.466 0v-1.275A5 5 0 0 0 13 8.046a.733.733 0 1 0-1.467 0a3.533 3.533 0 1 1-7.066 0a.733.733 0 0 0-.734-.733"/><path fill="url(#SVG8MXZScCE)" d="M3.733 7.313A.733.733 0 0 0 3 8.046a5 5 0 0 0 4.267 4.946v1.275a.733.733 0 0 0 1.466 0v-1.275A5 5 0 0 0 13 8.046a.733.733 0 1 0-1.467 0a3.533 3.533 0 1 1-7.066 0a.733.733 0 0 0-.734-.733"/><path fill="url(#SVGGdCRMb5d)" d="M8 2a2.5 2.5 0 0 0-2.5 2.5V8a2.5 2.5 0 0 0 5 0V4.5A2.5 2.5 0 0 0 8 2"/><defs><linearGradient id="SVGFwSxkd4F" x1="8" x2="8" y1="7.313" y2="15" gradientUnits="userSpaceOnUse"><stop/><stop offset="1" stop-color="#000"/></linearGradient><linearGradient id="SVG8MXZScCE" x1="3" x2="7.757" y1="4.076" y2="15.506" gradientUnits="userSpaceOnUse"><stop stop-color="#2ee378"/><stop offset="1" stop-color="#2ebfd5"/></linearGradient><linearGradient id="SVGGdCRMb5d" x1="4.25" x2="8.602" y1=".068" y2="15.321" gradientUnits="userSpaceOnUse"><stop stop-color="#0f89ff"/><stop offset="1" stop-color="#23d130"/></linearGradient></defs></g></svg>
